<?xml version="1.0" standalone="no"?>
<!DOCTYPE svg PUBLIC "-//W3C//DTD SVG 20010904//EN"
 "http://www.w3.org/TR/2001/REC-SVG-20010904/DTD/svg10.dtd">
<svg version="1.0" xmlns="http://www.w3.org/2000/svg"
 width="843.000000pt" height="843.000000pt" viewBox="0 0 843.000000 843.000000"
 preserveAspectRatio="xMidYMid meet">
<metadata>
Created by potrace 1.11, written by Peter Selinger 2001-2013
</metadata>
<g transform="translate(0.000000,843.000000) scale(0.100000,-0.100000)"
fill="#000000" stroke="none">
<path d="M171 8413 c-45 -15 -88 -66 -98 -116 -4 -22 -8 -195 -7 -387 l1 -348
26 -45 c17 -28 40 -51 64 -63 37 -17 190 -18 4073 -18 3752 0 4037 1 4067 17
17 9 41 30 52 46 20 28 21 40 21 434 0 395 0 405 -21 431 -11 14 -35 34 -52
43 -30 16 -290 17 -4061 18 -3186 0 -4036 -2 -4065 -12z"/>
<path d="M813 6546 c-46 -15 -79 -43 -98 -83 -17 -34 -18 -73 -18 -403 -1
-413 0 -414 75 -467 l41 -28 1977 0 1976 0 1 -432 c0 -238 -3 -433 -6 -434 -3
-1 -893 -2 -1977 -3 l-1970 -1 -41 -27 c-76 -50 -76 -55 -76 -468 0 -322 2
-369 16 -397 21 -39 53 -71 87 -85 38 -16 4831 -17 4877 -2 19 7 46 22 59 35
56 52 54 -8 51 1400 l-2 1296 -28 36 c-15 20 -42 45 -60 55 -30 16 -166 17
-2444 17 -1388 0 -2425 -4 -2440 -9z"/>
<path d="M6848 6538 c-43 -19 -58 -34 -85 -83 -15 -28 -17 -175 -17 -1825 l-1
-1794 -2966 -1 -2965 0 -41 -27 c-75 -49 -76 -58 -77 -443 -1 -187 2 -359 6
-382 9 -54 41 -97 87 -120 34 -16 232 -17 3435 -18 2566 0 3408 3 3433 11 43
15 70 40 93 84 17 33 18 141 17 2255 0 2150 -1 2221 -19 2263 -12 27 -34 52
-60 69 l-41 28 -379 0 c-347 1 -383 0 -420 -17z"/>
<path d="M1377 946 c-22 -11 -50 -36 -64 -60 l-26 -40 0 -356 c0 -195 3 -371
6 -390 4 -20 20 -50 36 -68 l30 -32 2863 0 c2579 0 2866 2 2886 16 55 38 57
50 59 434 0 195 -3 371 -8 391 -11 46 -42 84 -82 106 -30 16 -219 17 -2847 18
-2752 0 -2815 0 -2853 -19z"/>
</g>
</svg>
